<svg aria-hidden="true" style="position: absolute; width: 0; height: 0; overflow: hidden;" version="1.1" xmlns="http://www.w3.org/2000/svg" xmlns:xlink="http://www.w3.org/1999/xlink">
<defs>
<symbol id="Facebook" viewBox="0 0 32 32">
<path d="M0 16c0-8.837 7.163-16 16-16s16 7.163 16 16c0 8.837-7.163 16-16 16s-16-7.163-16-16zM17.668 25.408v-8.705h2.403l0.318-3h-2.721l0.004-1.501c0-0.782 0.074-1.202 1.198-1.202h1.502v-3h-2.403c-2.887 0-3.903 1.455-3.903 3.902v1.801h-1.799v3h1.799v8.705h3.602z"></path>
</symbol>
<symbol id="Instagram" viewBox="0 0 32 32">
<path d="M0 16c0-8.837 7.163-16 16-16s16 7.163 16 16c0 8.837-7.163 16-16 16s-16-7.163-16-16zM16.001 7.467c-2.318 0-2.608 0.010-3.519 0.052-0.908 0.042-1.529 0.185-2.071 0.396-0.561 0.218-1.037 0.51-1.512 0.984s-0.766 0.95-0.985 1.511c-0.212 0.543-0.356 1.163-0.396 2.071-0.041 0.91-0.051 1.201-0.051 3.519s0.010 2.608 0.052 3.518c0.042 0.908 0.186 1.529 0.396 2.071 0.218 0.561 0.51 1.037 0.984 1.512s0.95 0.767 1.511 0.985c0.543 0.211 1.163 0.355 2.071 0.396 0.91 0.041 1.201 0.052 3.518 0.052s2.608-0.010 3.518-0.052c0.908-0.042 1.529-0.185 2.072-0.396 0.561-0.218 1.036-0.51 1.511-0.985s0.766-0.95 0.985-1.511c0.21-0.543 0.354-1.163 0.396-2.071 0.041-0.91 0.052-1.2 0.052-3.518s-0.011-2.608-0.052-3.519c-0.043-0.908-0.187-1.529-0.396-2.071-0.219-0.561-0.51-1.037-0.985-1.512s-0.949-0.766-1.511-0.984c-0.544-0.211-1.164-0.355-2.073-0.396-0.91-0.041-1.2-0.052-3.518-0.052h0.003z"></path>
<path d="M15.235 9.004c0.227-0 0.481 0 0.766 0 2.278 0 2.548 0.008 3.448 0.049 0.832 0.038 1.284 0.177 1.584 0.294 0.398 0.155 0.682 0.34 0.981 0.638s0.484 0.583 0.639 0.981c0.117 0.3 0.256 0.752 0.294 1.584 0.041 0.9 0.050 1.17 0.050 3.447s-0.009 2.548-0.050 3.447c-0.038 0.832-0.177 1.284-0.294 1.584-0.155 0.398-0.34 0.682-0.639 0.98s-0.582 0.484-0.981 0.638c-0.3 0.117-0.752 0.256-1.584 0.294-0.9 0.041-1.17 0.050-3.448 0.050s-2.549-0.009-3.448-0.050c-0.832-0.038-1.284-0.177-1.585-0.294-0.398-0.155-0.683-0.34-0.981-0.638s-0.484-0.582-0.639-0.981c-0.117-0.3-0.256-0.752-0.294-1.584-0.041-0.9-0.049-1.17-0.049-3.449s0.008-2.548 0.049-3.447c0.038-0.832 0.177-1.284 0.294-1.584 0.155-0.398 0.34-0.683 0.639-0.981s0.583-0.484 0.981-0.639c0.301-0.117 0.753-0.256 1.585-0.294 0.787-0.036 1.092-0.046 2.683-0.048v0.002zM20.556 10.421c-0.565 0-1.024 0.458-1.024 1.024s0.459 1.024 1.024 1.024 1.024-0.459 1.024-1.024c0-0.565-0.459-1.024-1.024-1.024zM16.001 11.618c-2.42 0-4.382 1.962-4.382 4.382s1.962 4.381 4.382 4.381 4.382-1.961 4.382-4.381c0-2.42-1.961-4.382-4.382-4.382z"></path>
<path d="M16.001 13.156c1.571 0 2.844 1.273 2.844 2.844s-1.274 2.844-2.844 2.844c-1.571 0-2.844-1.274-2.844-2.844s1.273-2.844 2.844-2.844z"></path>
</symbol>
<symbol id="Telegram" viewBox="0 0 32 32">
<path d="M32 16c0 8.837-7.163 16-16 16s-16-7.163-16-16c0-8.837 7.163-16 16-16s16 7.163 16 16zM10.714 14.534c-1.603 0.7-3.25 1.419-4.755 2.248-0.786 0.576 0.259 0.983 1.239 1.365 0.156 0.061 0.31 0.121 0.455 0.181 0.121 0.037 0.243 0.076 0.368 0.116 1.090 0.347 2.306 0.735 3.365 0.152 1.739-0.999 3.38-2.154 5.020-3.308 0.537-0.378 1.074-0.756 1.615-1.129 0.025-0.016 0.054-0.035 0.085-0.055 0.46-0.298 1.496-0.97 1.113-0.045-0.906 0.99-1.876 1.867-2.851 2.749-0.657 0.594-1.317 1.19-1.961 1.825-0.561 0.456-1.143 1.372-0.515 2.010 1.447 1.013 2.916 2.001 4.384 2.988 0.478 0.321 0.956 0.643 1.432 0.965 0.808 0.645 2.071 0.123 2.249-0.885 0.079-0.464 0.158-0.928 0.238-1.391 0.438-2.563 0.877-5.127 1.264-7.699 0.053-0.403 0.112-0.807 0.172-1.21 0.145-0.978 0.29-1.957 0.335-2.941-0.117-0.981-1.307-0.766-1.969-0.545-3.403 1.295-6.773 2.686-10.129 4.102-0.38 0.168-0.766 0.337-1.154 0.506z"></path>
</symbol>
<symbol id="Viber" viewBox="0 0 32 32">
<path d="M16 0c8.837 0 16 7.163 16 16s-7.163 16-16 16c-8.837 0-16-7.163-16-16s7.163-16 16-16zM20.263 13.972c-0.078-0.632-0.272-1.129-0.617-1.568-0.448-0.566-1.021-0.905-1.869-1.106-0.552-0.134-0.776-0.119-0.976 0.064-0.186 0.171-0.222 0.514-0.080 0.736 0.1 0.161 0.215 0.219 0.536 0.282 0.427 0.079 0.723 0.181 0.991 0.334 0.57 0.329 0.836 0.845 0.864 1.679 0.013 0.392 0.047 0.512 0.184 0.651 0.254 0.254 0.705 0.205 0.896-0.099 0.070-0.115 0.081-0.164 0.088-0.43 0.005-0.165-0.002-0.41-0.019-0.541zM20.27 10.093c1.356 1.096 2.113 2.655 2.226 4.592 0.047 0.763-0.016 1.011-0.285 1.153-0.243 0.131-0.518 0.088-0.707-0.109-0.125-0.128-0.173-0.304-0.171-0.615 0.005-0.86-0.193-1.82-0.515-2.486-0.373-0.775-0.949-1.435-1.674-1.918-0.635-0.424-1.475-0.71-2.29-0.781-0.529-0.046-0.717-0.136-0.819-0.389-0.063-0.152-0.046-0.414 0.027-0.531 0.070-0.108 0.226-0.228 0.336-0.26 0.117-0.034 0.8 0.026 1.171 0.099 1.012 0.206 1.936 0.63 2.699 1.246zM24.968 22.144c-0.038-0.111-0.126-0.281-0.189-0.38-0.398-0.601-2.536-2.274-3.603-2.821-0.609-0.313-1.061-0.417-1.396-0.319-0.36 0.101-0.549 0.269-1.153 1.018-0.243 0.3-0.493 0.582-0.559 0.626-0.164 0.114-0.486 0.206-0.714 0.206-0.527-0.003-1.484-0.345-2.22-0.794-0.572-0.348-1.304-0.971-1.866-1.588-0.663-0.724-1.115-1.363-1.472-2.084-0.461-0.927-0.578-1.493-0.385-1.907 0.047-0.104 0.111-0.215 0.139-0.25 0.028-0.032 0.325-0.275 0.654-0.541 0.644-0.512 0.748-0.629 0.868-0.98 0.152-0.446 0.111-0.901-0.123-1.36-0.18-0.348-0.65-1.107-0.992-1.597-0.452-0.645-1.576-2.024-1.8-2.211-0.404-0.329-0.922-0.386-1.494-0.164-0.603 0.234-1.734 1.145-2.217 1.781-0.436 0.576-0.603 0.984-0.628 1.521-0.022 0.443 0.016 0.626 0.249 1.192 1.828 4.44 4.557 7.985 8.305 10.8 1.958 1.471 3.988 2.59 6.095 3.356 1.228 0.446 1.762 0.468 2.39 0.101 0.265-0.158 0.922-0.832 1.288-1.322 0.606-0.816 0.831-1.192 0.894-1.493 0.044-0.206 0.009-0.563-0.073-0.791zM24.161 12.134c0.385 1.002 0.569 1.901 0.61 2.996 0.006 0.216 0.003 0.613-0.011 0.882-0.029 0.515-0.057 0.617-0.205 0.753-0.238 0.224-0.703 0.17-0.879-0.099-0.092-0.145-0.105-0.25-0.087-0.852 0.051-1.78-0.309-3.173-1.176-4.566-1.036-1.672-2.586-2.798-4.601-3.349-0.514-0.14-0.947-0.226-1.621-0.316-0.439-0.057-0.535-0.082-0.643-0.148-0.327-0.21-0.331-0.74-0.005-0.953 0.168-0.112 0.292-0.117 0.841-0.047 1.609 0.201 3.044 0.679 4.223 1.401 0.845 0.518 1.378 0.984 2.065 1.8 0.726 0.87 1.11 1.513 1.49 2.499z"></path>
</symbol>
<symbol id="Phone" viewBox="0 0 24 24">
<path  d="M19.9996 16.0028V18.4163C20.0014 18.8693 19.8122 19.3021 19.4783 19.6084C19.1445 19.9147 18.697 20.066 18.2458 20.0252C15.7703 19.7562 13.3924 18.9103 11.3032 17.5555C9.35943 16.3203 7.71147 14.6724 6.47633 12.7286C5.11675 10.6299 4.27066 8.24046 4.0066 5.75383C3.96595 5.30403 4.11622 4.85785 4.42071 4.52429C4.7252 4.19073 5.15586 4.0005 5.6075 4.00008H8.02093C8.82851 3.99213 9.51685 4.5841 9.62988 5.38378C9.73174 6.15613 9.92065 6.91447 10.193 7.64435C10.414 8.23232 10.2727 8.89515 9.83099 9.34179L8.80931 10.3635C9.95453 12.3775 11.6221 14.0451 13.6362 15.1903L14.6578 14.1686C15.1045 13.727 15.7673 13.5856 16.3553 13.8066C17.0852 14.079 17.8435 14.2679 18.6159 14.3698C19.4248 14.4839 20.0198 15.1861 19.9996 16.0028Z" />
</symbol>
</defs>
</svg>
