<!-- Generated by IcoMoon.io -->
<svg version="1.1" xmlns="http://www.w3.org/2000/svg" width="32" height="32" viewBox="0 0 32 32">
<path d="M26.666 5.707h-1.547l-1.387-2.507c-0.373-0.693-1.067-1.12-1.867-1.12h-6.027c-0.8 0-1.493 0.427-1.867 1.12l-1.387 2.507h-2.133v-0.533c0-1.173-0.96-2.133-2.133-2.133l-0.213 0c-1.173 0-2.133 0.96-2.133 2.133v0.533l-0.64-0c-1.173 0-2.133 0.96-2.133 2.133v13.546c0 1.173 0.96 2.133 2.133 2.133h21.334c1.173 0 2.133-0.96 2.133-2.133l-0-13.546c0-1.173-0.96-2.133-2.133-2.133zM7.040 5.173c0-0.587 0.48-1.067 1.067-1.067h0.267c0.587 0 1.067 0.48 1.067 1.067v0.533l-2.4-0zM27.733 21.386c0 0.587-0.48 1.067-1.067 1.067l-21.334 0c-0.587 0-1.067-0.48-1.067-1.067l-0-13.547c0-0.587 0.48-1.067 1.067-1.067h7.574c0.213 0 0.373-0.107 0.48-0.267l1.547-2.773c0.213-0.32 0.533-0.533 0.907-0.533h6.026c0.373 0 0.747 0.213 0.907 0.533l1.547 2.773c0.107 0.16 0.267 0.267 0.48 0.267h1.867c0.587 0 1.067 0.48 1.067 1.067z"></path>
<path d="M18.88 7.413c-3.68 0-6.72 2.987-6.72 6.72s2.987 6.72 6.72 6.72c3.68 0 6.72-2.987 6.72-6.72s-3.040-6.72-6.72-6.72zM18.88 19.787c-3.093 0-5.654-2.507-5.654-5.654s2.507-5.654 5.654-5.654c3.147 0 5.654 2.507 5.654 5.654s-2.56 5.654-5.654 5.654z"></path>
<path d="M18.88 9.386c-2.613 0-4.747 2.133-4.747 4.746 0 0.32 0.213 0.533 0.533 0.533s0.533-0.213 0.533-0.533c0-2.027 1.653-3.68 3.68-3.68 0.32 0 0.533-0.213 0.533-0.533-0-0.266-0.267-0.533-0.534-0.533z"></path>
<path d="M9.493 8.534h-2.56c-0.32 0-0.533 0.213-0.533 0.533s0.213 0.533 0.533 0.533h2.56c0.32 0 0.533-0.213 0.533-0.533s-0.213-0.533-0.533-0.533z"></path>
</svg>
